# xmcd
#
# Track frame offsets:
#	150
#	19588
#	55272
#	91797
#	140109
#	167387
#	183416
#	216990
#	265182
#	303403
#	317813
#
# Disc length: 4451 seconds
# Revision: 0
# Processed by: cddbd v1.5.2PL0 Copyright (c) Steve Scherf et al.
# Submitted via: dBpowerAMP V12.0
#
DISCID=9411610b
DTITLE=Christian Liederer - Leben und Werk 1
DYEAR=2012
DGENRE=
TTITLE0=Stimmen
TTITLE1="Mehr Licht"
TTITLE2=Leipziger Leiden - der kranke Bürgersohn
TTITLE3="Goethe liebt sie"
TTITLE4=Os Intermaxillare
TTITLE5=Frau von Stein
TTITLE6=Italien - die Wiedergeburt
TTITLE7=Schiller - Buhler, Ansporn, Freund
TTITLE8=Erschütterungen und Verstimmungen
TTITLE9=Letzter Frühling
TTITLE10="Über allen Gipfeln"
EXTD=
EXTT0=
EXTT1=
EXTT2=
EXTT3=
EXTT4=
EXTT5=
EXTT6=
EXTT7=
EXTT8=
EXTT9=
EXTT10=
PLAYORDER=
